<svg xmlns="http://www.w3.org/2000/svg" viewBox="0 0 1200 520">
  <defs>
    <linearGradient id="bg2" x1="0" y1="0" x2="1" y2="1">
      <stop offset="0%"   stop-color="#1a1a4e"/>
      <stop offset="50%"  stop-color="#2d2060"/>
      <stop offset="100%" stop-color="#ee552c"/>
    </linearGradient>
    <radialGradient id="spot" cx="75%" cy="50%" r="40%">
      <stop offset="0%"   stop-color="#ee552c" stop-opacity="0.35"/>
      <stop offset="100%" stop-color="#ee552c" stop-opacity="0"/>
    </radialGradient>
  </defs>

  <rect width="1200" height="520" fill="url(#bg2)"/>
  <rect width="1200" height="520" fill="url(#spot)"/>

  <!-- Anillos -->
  <circle cx="950" cy="260" r="320" fill="none" stroke="rgba(238,85,44,0.1)"  stroke-width="2"/>
  <circle cx="950" cy="260" r="230" fill="none" stroke="rgba(238,85,44,0.14)" stroke-width="2"/>
  <circle cx="950" cy="260" r="140" fill="rgba(238,85,44,0.1)"/>

  <!-- Persona central (derecha) -->
  <circle cx="960" cy="200" r="42" fill="rgba(255,255,255,0.18)"/>
  <circle cx="960" cy="186" r="20" fill="rgba(255,255,255,0.65)"/>
  <path d="M 924 228 Q 960 212 996 228 L 1002 260 Q 960 250 918 260 Z" fill="rgba(255,255,255,0.55)"/>

  <!-- Persona izquierda -->
  <circle cx="820" cy="175" r="32" fill="rgba(255,255,255,0.13)"/>
  <circle cx="820" cy="163" r="15" fill="rgba(255,255,255,0.5)"/>
  <path d="M 796 198 Q 820 186 844 198 L 848 222 Q 820 214 792 222 Z" fill="rgba(255,255,255,0.4)"/>

  <!-- Persona derecha -->
  <circle cx="1100" cy="180" r="32" fill="rgba(255,255,255,0.13)"/>
  <circle cx="1100" cy="168" r="15" fill="rgba(255,255,255,0.5)"/>
  <path d="M 1076 203 Q 1100 191 1124 203 L 1128 227 Q 1100 219 1072 227 Z" fill="rgba(255,255,255,0.4)"/>

  <!-- Líneas de conexión -->
  <line x1="844" y1="205" x2="924" y2="218" stroke="rgba(238,85,44,0.6)" stroke-width="2.5" stroke-dasharray="6,4"/>
  <line x1="996" y1="218" x2="1076" y2="210" stroke="rgba(238,85,44,0.6)" stroke-width="2.5" stroke-dasharray="6,4"/>
  <line x1="840" y1="170" x2="1100" y2="165" stroke="rgba(255,255,255,0.1)" stroke-width="1.5" stroke-dasharray="4,4"/>

  <!-- Puntos decorativos -->
  <circle cx="750"  cy="360" r="8" fill="rgba(238,85,44,0.5)"/>
  <circle cx="790"  cy="400" r="5" fill="rgba(238,85,44,0.4)"/>
  <circle cx="1130" cy="370" r="7" fill="rgba(238,85,44,0.45)"/>
  <circle cx="1160" cy="340" r="4" fill="rgba(238,85,44,0.35)"/>
  <circle cx="850"  cy="440" r="6" fill="rgba(255,255,255,0.2)"/>
  <circle cx="1050" cy="430" r="5" fill="rgba(255,255,255,0.2)"/>

  <!-- Banda inferior -->
  <rect x="0" y="510" width="1200" height="10" fill="rgba(238,85,44,0.55)"/>
</svg>
