<svg xmlns="http://www.w3.org/2000/svg" viewBox="0 0 200 200">
  <rect width="200" height="200" rx="20" fill="#011f26"/>
  <!-- Open book -->
  <!-- Left page -->
  <path d="M 46 62 L 46 148 Q 46 154 52 154 L 96 148 L 96 56 Q 76 52 52 56 Z" fill="white" opacity="0.9"/>
  <!-- Right page -->
  <path d="M 154 62 L 154 148 Q 154 154 148 154 L 104 148 L 104 56 Q 124 52 148 56 Z" fill="white" opacity="0.85"/>
  <!-- Spine crease -->
  <line x1="100" y1="55" x2="100" y2="154" stroke="rgba(1,31,38,0.3)" stroke-width="3"/>
  <!-- Lines on left page -->
  <rect x="56" y="76" width="32" height="5" rx="2" fill="#3ca6a6" opacity="0.8"/>
  <rect x="56" y="88" width="28" height="4" rx="2" fill="rgba(1,31,38,0.25)"/>
  <rect x="56" y="99" width="30" height="4" rx="2" fill="rgba(1,31,38,0.2)"/>
  <rect x="56" y="110" width="24" height="4" rx="2" fill="rgba(1,31,38,0.2)"/>
  <rect x="56" y="121" width="30" height="4" rx="2" fill="rgba(1,31,38,0.18)"/>
  <rect x="56" y="132" width="26" height="4" rx="2" fill="rgba(1,31,38,0.18)"/>
  <!-- Lines on right page -->
  <rect x="112" y="76" width="34" height="5" rx="2" fill="#3ca6a6" opacity="0.8"/>
  <rect x="112" y="88" width="26" height="4" rx="2" fill="rgba(1,31,38,0.25)"/>
  <rect x="112" y="99" width="30" height="4" rx="2" fill="rgba(1,31,38,0.2)"/>
  <rect x="112" y="110" width="22" height="4" rx="2" fill="rgba(1,31,38,0.2)"/>
  <rect x="112" y="121" width="28" height="4" rx="2" fill="rgba(1,31,38,0.18)"/>
  <rect x="112" y="132" width="24" height="4" rx="2" fill="rgba(1,31,38,0.18)"/>
  <!-- Bookmark -->
  <polygon points="154,56 162,56 162,80 158,74 154,80" fill="#3ca6a6" opacity="0.8"/>
  <!-- Decorative glow -->
  <circle cx="100" cy="160" r="50" fill="rgba(60,166,166,0.06)"/>
</svg>
